<?xml version="1.0" standalone="no"?>
<!DOCTYPE svg PUBLIC "-//W3C//DTD SVG 20010904//EN"
 "http://www.w3.org/TR/2001/REC-SVG-20010904/DTD/svg10.dtd">
<svg version="1.0" xmlns="http://www.w3.org/2000/svg"
 width="500.000000pt" height="500.000000pt" viewBox="0 0 500.000000 500.000000"
 preserveAspectRatio="xMidYMid meet">
<metadata>
Created by potrace 1.14, written by Peter Selinger 2001-2017
</metadata>
<g transform="translate(0.000000,500.000000) scale(0.100000,-0.100000)"
fill="#000000" stroke="none">
<path d="M1640 4290 c-42 -12 -69 -33 -80 -64 -12 -34 -14 -2456 -2 -2457 4 0
14 -2 22 -4 194 -50 244 -62 305 -71 43 -6 101 -15 125 -19 25 -4 147 -17 185
-19 19 -1 20 7 25 279 l5 279 200 0 c274 -1 359 -13 453 -66 47 -26 112 -91
112 -112 0 -9 4 -16 8 -16 20 0 56 -229 42 -270 -1 -3 -4 -23 -6 -45 -8 -66
-64 -165 -93 -165 -6 0 -11 -4 -11 -9 0 -25 -131 -36 -430 -36 -294 1 -418 9
-605 40 -11 2 -38 6 -60 10 -22 4 -87 18 -145 32 -58 13 -112 26 -120 28 -8 2
-63 19 -121 39 -125 42 -235 91 -326 146 -36 22 -67 40 -69 40 -8 0 -70 55
-129 115 -231 234 -141 513 230 717 92 50 200 98 221 98 8 0 15 8 15 18 3 42
4 158 2 164 -2 3 -26 0 -53 -7 -28 -7 -50 -11 -50 -8 0 3 -7 0 -15 -7 -8 -7
-15 -10 -15 -6 0 3 -12 1 -27 -5 -16 -6 -39 -13 -53 -16 -36 -6 -257 -82 -310
-106 -25 -11 -51 -21 -57 -23 -44 -9 -364 -188 -409 -229 -7 -5 -30 -25 -53
-44 -145 -117 -247 -262 -287 -406 -17 -61 -18 -196 -2 -250 6 -22 12 -42 12
-45 4 -32 86 -174 135 -233 29 -34 125 -124 178 -167 61 -48 242 -160 259
-160 7 0 14 -3 16 -8 2 -4 41 -25 88 -46 47 -21 98 -45 114 -52 16 -8 36 -14
46 -14 9 0 20 -4 25 -9 9 -7 99 -40 130 -47 6 -1 36 -12 68 -23 31 -11 57 -18
57 -16 0 3 17 -2 37 -9 21 -8 99 -28 173 -44 122 -27 161 -35 240 -48 14 -3
36 -7 50 -9 14 -3 45 -7 70 -10 25 -3 61 -7 80 -10 19 -3 64 -7 100 -10 36 -3
75 -8 87 -10 106 -23 828 -24 973 -1 14 2 47 7 74 11 27 4 78 16 115 26 36 11
74 21 83 24 56 13 188 104 255 175 50 53 137 188 157 245 10 28 20 57 23 65
29 74 41 185 39 325 -2 77 -6 151 -9 165 -4 14 -12 48 -18 75 -6 28 -31 91
-55 141 -49 99 -137 202 -226 262 -56 38 -186 102 -207 102 -20 0 12 22 59 40
106 41 226 148 283 251 89 161 115 384 72 624 -29 162 -133 343 -254 442 -78
64 -153 96 -321 136 -256 63 -394 96 -420 101 -14 3 -43 10 -65 15 -22 5 -51
12 -65 14 -14 3 -53 12 -88 21 -60 16 -133 33 -177 40 -11 2 -58 13 -105 24
-77 19 -151 36 -405 91 -45 10 -91 15 -105 11z m728 -765 c104 -14 213 -34
287 -55 22 -6 48 -12 58 -15 37 -9 124 -53 149 -76 56 -53 90 -148 91 -256 1
-80 -5 -113 -29 -173 -70 -180 -175 -222 -559 -224 l-140 -1 -3 408 -2 409 57
-6 c32 -4 73 -8 91 -11z"/>
<path d="M3780 2857 c-6 -17 -22 -57 -35 -88 l-22 -56 41 -21 c259 -133 400
-287 410 -453 8 -135 -72 -275 -218 -380 -25 -18 -46 -35 -47 -38 0 -3 -2 -60
-4 -126 -1 -66 -5 -136 -9 -155 -3 -19 -8 -49 -10 -65 -5 -37 -49 -171 -78
-234 -28 -63 -98 -170 -144 -220 -20 -23 -35 -43 -33 -45 2 -2 49 10 104 26
55 15 109 31 120 33 11 2 54 16 95 31 445 155 763 372 898 614 94 167 102 322
26 503 -14 34 -29 64 -33 67 -3 3 -20 25 -36 49 -37 55 -132 153 -200 207 -27
21 -52 42 -55 45 -10 11 -186 116 -255 151 -60 31 -279 124 -310 132 -5 1 -41
13 -80 25 -110 35 -111 35 -125 -2z"/>
</g>
</svg>
